<?xml version="1.0" encoding="UTF-8"?>
<!DOCTYPE svg PUBLIC "-//W3C//DTD SVG 1.1//EN" "http://www.w3.org/Graphics/SVG/1.1/DTD/svg11.dtd">
<svg xmlns="http://www.w3.org/2000/svg" version="1.1" width="512px" height="512px" style="shape-rendering:geometricPrecision; text-rendering:geometricPrecision; image-rendering:optimizeQuality; fill-rule:evenodd; clip-rule:evenodd" xmlns:xlink="http://www.w3.org/1999/xlink">
<g><path style="opacity:0.076" fill="#050000" d="M 143.5,44.5 C 216.504,44.5103 289.504,44.5103 362.5,44.5C 433.446,49.2852 470.112,87.4518 472.5,159C 471.167,228 471.167,297 472.5,366C 471.475,380.653 469.308,395.153 466,409.5C 457.803,436.03 441.303,455.53 416.5,468C 413.167,468.333 409.833,468.667 406.5,469C 305.167,469.667 203.833,469.667 102.5,469C 98.8333,468.667 95.1667,468.333 91.5,468C 55.8029,447.75 37.8029,417.25 37.5,376.5C 36.0559,358.209 35.3892,339.875 35.5,321.5C 36.6767,273.996 36.6767,226.496 35.5,179C 35.9087,168.976 36.5753,158.976 37.5,149C 37.5209,110.333 54.1875,80.3327 87.5,59C 99.399,52.4726 111.899,48.6392 125,47.5C 131.088,46.7451 137.255,45.7451 143.5,44.5 Z"/></g>
<g><path style="opacity:1" fill="#dc001a" d="M 148.5,48.5 C 220.167,48.5 291.833,48.5 363.5,48.5C 368.305,49.4872 373.305,49.8205 378.5,49.5C 380.948,50.4731 383.615,50.8064 386.5,50.5C 387.919,51.4511 389.585,51.7845 391.5,51.5C 392.919,52.4511 394.585,52.7845 396.5,52.5C 397.209,53.404 398.209,53.7373 399.5,53.5C 400.209,54.404 401.209,54.7373 402.5,54.5C 403.209,55.404 404.209,55.7373 405.5,55.5C 405.842,56.3382 406.508,56.6716 407.5,56.5C 411.435,58.4673 415.435,60.4673 419.5,62.5C 420.29,63.4013 421.29,64.0679 422.5,64.5C 422.5,65.1667 422.833,65.5 423.5,65.5C 424.29,66.4013 425.29,67.0679 426.5,67.5C 426.5,68.1667 426.833,68.5 427.5,68.5C 429.142,69.803 430.809,71.1363 432.5,72.5C 432.5,73.1667 432.833,73.5 433.5,73.5C 452.605,92.7362 462.105,116.07 462,143.5C 462.667,218.5 462.667,293.5 462,368.5C 460.474,412.324 439.308,441.824 398.5,457C 393.861,458.128 389.195,459.128 384.5,460C 301.854,461.641 219.188,461.975 136.5,461C 95.1635,457.754 67.6635,436.588 54,397.5C 52.2462,390.909 50.9129,384.242 50,377.5C 49.3333,296.167 49.3333,214.833 50,133.5C 54.8282,92.5264 76.6615,65.5264 115.5,52.5C 117.099,52.7678 118.432,52.4345 119.5,51.5C 121.415,51.7845 123.081,51.4511 124.5,50.5C 127.385,50.8064 130.052,50.4731 132.5,49.5C 138.026,49.8214 143.36,49.4881 148.5,48.5 Z"/></g>
<g><path style="opacity:1" fill="#d7021c" d="M 291.5,100.5 C 307.314,98.5106 322.314,101.011 336.5,108C 354.36,121.083 357.193,136.916 345,155.5C 334.692,164.638 322.859,167.305 309.5,163.5C 302.785,168.235 303.118,172.735 310.5,177C 358.27,187.437 388.437,216.271 401,263.5C 405.814,286.144 403.814,308.144 395,329.5C 370.803,382.702 329.636,413.202 271.5,421C 214.052,424.52 168.219,403.354 134,357.5C 105.139,312.565 99.8055,264.898 118,214.5C 132.521,180.312 156.354,154.812 189.5,138C 210.538,128.902 227.038,134.069 239,153.5C 239.667,152.833 240.333,152.167 241,151.5C 248.024,124.643 264.857,107.643 291.5,100.5 Z"/></g>
<g><path style="opacity:1" fill="#d00a20" d="M 302.5,104.5 C 315.28,104.484 326.947,107.984 337.5,115C 348.732,125.619 350.232,137.452 342,150.5C 332.818,159.573 321.985,162.239 309.5,158.5C 301.632,159.887 298.466,164.554 300,172.5C 301.061,175.562 302.894,178.062 305.5,180C 343.618,187.792 371.451,208.959 389,243.5C 403.869,279.153 401.202,313.487 381,346.5C 348.23,396.635 301.73,419.801 241.5,416C 180.792,406.618 139.959,373.118 119,315.5C 102.362,253.51 117.862,201.343 165.5,159C 175.637,150.596 186.97,144.263 199.5,140C 217.811,136.399 229.311,143.566 234,161.5C 234.194,170.947 230.694,178.781 223.5,185C 173.182,211.812 156.015,252.645 172,307.5C 188.657,343.266 216.824,362.266 256.5,364.5C 294.787,361.789 322.621,343.455 340,309.5C 349.519,286.104 345.352,265.604 327.5,248C 324.138,245.95 321.805,246.95 320.5,251C 329.058,288.881 316.058,316.548 281.5,334C 247.494,344.554 220.328,335.388 200,306.5C 182.869,270.456 189.036,238.956 218.5,212C 225.956,205.882 233.956,200.549 242.5,196C 245.923,193.321 247.923,189.821 248.5,185.5C 240.044,154.349 249.044,129.849 275.5,112C 284.162,107.755 293.162,105.255 302.5,104.5 Z"/></g>
<g><path style="opacity:1" fill="#fad9dc" d="M 337.5,121.5 C 340.361,128.024 340.027,134.357 336.5,140.5C 335.833,140.833 335.167,141.167 334.5,141.5C 334.755,138.984 335.589,136.65 337,134.5C 337.667,131.5 337.667,128.5 337,125.5C 334.037,122.373 330.871,119.373 327.5,116.5C 312.815,110.512 297.815,109.845 282.5,114.5C 291.359,109.042 301.025,107.208 311.5,109C 318.091,110.23 324.424,112.23 330.5,115C 333.358,116.694 335.691,118.861 337.5,121.5 Z"/></g>
<g><path style="opacity:1" fill="#fefdfd" d="M 334.5,141.5 C 331.114,145.301 326.78,146.967 321.5,146.5C 316.86,146.516 312.527,145.349 308.5,143C 304.218,142.035 300.218,142.702 296.5,145C 293.217,147.772 290.55,150.939 288.5,154.5C 287.441,161.689 287.608,169.023 289,176.5C 289.536,180.451 291.036,183.951 293.5,187C 309.139,188.66 324.139,192.66 338.5,199C 348.845,206.333 358.345,214.833 367,224.5C 369.519,227.54 371.519,230.873 373,234.5C 375.034,235.721 376.867,237.055 378.5,238.5C 381.267,242.374 383.267,246.707 384.5,251.5C 386.772,261.339 387.772,271.339 387.5,281.5C 388.314,292.971 386.481,303.971 382,314.5C 375.754,323.987 370.921,333.987 367.5,344.5C 367.5,344.833 367.5,345.167 367.5,345.5C 366.07,345.421 364.736,345.754 363.5,346.5C 362.502,349.253 360.669,351.253 358,352.5C 357.51,353.793 357.343,355.127 357.5,356.5C 356.5,356.5 355.5,356.5 354.5,356.5C 354.5,357.5 354.5,358.5 354.5,359.5C 350.161,360.995 346.827,363.829 344.5,368C 339.285,370.219 334.951,373.552 331.5,378C 326.221,379.973 321.221,382.473 316.5,385.5C 315.614,386.325 315.281,387.325 315.5,388.5C 313.517,388.157 312.183,388.824 311.5,390.5C 308.813,390.336 306.146,390.503 303.5,391C 295.437,393.677 287.437,396.344 279.5,399C 264.867,400.518 250.2,400.851 235.5,400C 228.195,396.582 220.528,393.915 212.5,392C 183.727,381.556 161.227,363.389 145,337.5C 142.584,334.912 140.084,332.578 137.5,330.5C 136.326,329.486 135.66,328.153 135.5,326.5C 135.804,325.85 136.137,325.183 136.5,324.5C 118.803,281.053 120.97,238.719 143,197.5C 144.982,193.854 147.649,190.854 151,188.5C 152.149,184.516 154.482,181.516 158,179.5C 158.333,178.5 158.667,177.5 159,176.5C 164.6,172.147 170.1,167.647 175.5,163C 176.337,161.989 176.67,160.822 176.5,159.5C 179.344,159.657 181.011,158.324 181.5,155.5C 183.5,153.833 185.5,152.167 187.5,150.5C 192.473,148.013 197.473,145.513 202.5,143C 213.781,140.124 221.448,143.957 225.5,154.5C 226.226,160.311 225.059,165.645 222,170.5C 215.111,175.032 207.945,179.198 200.5,183C 192.367,189.299 184.7,196.132 177.5,203.5C 175.83,203.751 174.33,204.418 173,205.5C 164.676,219.121 158.676,233.787 155,249.5C 154.176,258.343 154.343,267.01 155.5,275.5C 155.5,276.167 155.5,276.833 155.5,277.5C 156.216,302.007 165.216,323.007 182.5,340.5C 195.731,353.784 211.397,362.95 229.5,368C 247.83,371.284 266.163,371.284 284.5,368C 289.319,365.733 294.319,363.9 299.5,362.5C 300.953,360.815 302.286,359.149 303.5,357.5C 321.783,347.551 336.116,333.551 346.5,315.5C 348.09,315.372 349.423,314.705 350.5,313.5C 351.23,310.891 351.73,308.224 352,305.5C 354.108,303.618 355.441,301.285 356,298.5C 356.667,289.5 356.667,280.5 356,271.5C 355.8,269.68 354.966,268.347 353.5,267.5C 353.5,267.167 353.5,266.833 353.5,266.5C 348.638,242.793 334.638,226.96 311.5,219C 308.833,218.333 306.167,218.333 303.5,219C 302.378,222.409 302.211,225.909 303,229.5C 304.268,233.805 305.435,238.138 306.5,242.5C 308.633,246.37 310.466,250.37 312,254.5C 312.5,262.827 312.666,271.16 312.5,279.5C 309.42,287.653 305.253,295.32 300,302.5C 291.928,309.247 283.761,315.58 275.5,321.5C 275.167,321.5 274.833,321.5 274.5,321.5C 263.519,322.518 252.519,322.684 241.5,322C 225.457,314.791 213.457,303.291 205.5,287.5C 204.675,286.614 203.675,286.281 202.5,286.5C 202.5,286.167 202.5,285.833 202.5,285.5C 201.501,275.519 201.334,265.519 202,255.5C 205.011,247.644 208.511,239.977 212.5,232.5C 221.015,223.992 229.015,215.326 236.5,206.5C 237.873,206.657 239.207,206.49 240.5,206C 248.091,202.692 255.591,199.192 263,195.5C 263.667,192.833 263.667,190.167 263,187.5C 260.332,178.328 258.499,168.994 257.5,159.5C 257.901,154.427 258.734,149.427 260,144.5C 262.328,138.818 264.495,133.151 266.5,127.5C 266.557,126.391 266.89,125.391 267.5,124.5C 271.974,120.356 276.974,117.023 282.5,114.5C 297.815,109.845 312.815,110.512 327.5,116.5C 330.871,119.373 334.037,122.373 337,125.5C 337.667,128.5 337.667,131.5 337,134.5C 335.589,136.65 334.755,138.984 334.5,141.5 Z"/></g>
<g><path style="opacity:1" fill="#c91425" d="M 267.5,124.5 C 266.89,125.391 266.557,126.391 266.5,127.5C 256.196,138.783 252.363,152.116 255,167.5C 257.54,176.369 259.374,185.369 260.5,194.5C 253.158,196.67 246.158,199.67 239.5,203.5C 241.434,199.583 244.601,196.916 249,195.5C 250.275,193.283 251.275,190.949 252,188.5C 250.578,177.552 249.744,166.385 249.5,155C 251.539,143.756 256.372,133.922 264,125.5C 265.666,126.34 265.833,125.84 264.5,124C 265.749,123.26 266.749,123.427 267.5,124.5 Z"/></g>
<g><path style="opacity:1" fill="#c70f23" d="M 337.5,121.5 C 339.752,121.916 341.252,123.249 342,125.5C 345.963,141.248 340.296,151.581 325,156.5C 319.621,157.092 314.288,156.426 309,154.5C 300.256,155.078 295.756,159.744 295.5,168.5C 295.736,173.804 297.736,178.304 301.5,182C 304.881,182.915 307.881,184.415 310.5,186.5C 304.875,185.507 299.208,184.84 293.5,184.5C 293.017,177.752 292.017,171.086 290.5,164.5C 292.228,154.442 298.228,149.442 308.5,149.5C 314.486,150.41 320.486,150.576 326.5,150C 331.648,148.684 334.982,145.517 336.5,140.5C 340.027,134.357 340.361,128.024 337.5,121.5 Z"/></g>
<g><path style="opacity:1" fill="#c1212d" d="M 336.5,140.5 C 334.982,145.517 331.648,148.684 326.5,150C 320.486,150.576 314.486,150.41 308.5,149.5C 298.228,149.442 292.228,154.442 290.5,164.5C 289.778,164.082 289.278,163.416 289,162.5C 288.503,159.854 288.336,157.187 288.5,154.5C 290.55,150.939 293.217,147.772 296.5,145C 300.218,142.702 304.218,142.035 308.5,143C 312.527,145.349 316.86,146.516 321.5,146.5C 326.78,146.967 331.114,145.301 334.5,141.5C 335.167,141.167 335.833,140.833 336.5,140.5 Z"/></g>
<g><path style="opacity:1" fill="#c51d2a" d="M 225.5,154.5 C 228.926,162.237 228.093,169.57 223,176.5C 212.921,183.79 202.754,190.956 192.5,198C 161.719,227.616 152.052,263.116 163.5,304.5C 159.743,295.802 157.076,286.802 155.5,277.5C 155.5,276.833 155.5,276.167 155.5,275.5C 154.2,248.743 161.533,224.743 177.5,203.5C 184.7,196.132 192.367,189.299 200.5,183C 207.945,179.198 215.111,175.032 222,170.5C 225.059,165.645 226.226,160.311 225.5,154.5 Z"/></g>
<g><path style="opacity:1" fill="#dc001b" d="M 238.5,174.5 C 240.614,175.36 241.78,177.027 242,179.5C 242.667,182.833 242.667,186.167 242,189.5C 228.216,197.236 215.882,206.903 205,218.5C 184.914,243.079 180.248,270.412 191,300.5C 209.19,335.342 237.69,348.842 276.5,341C 303.687,332.478 320.52,314.312 327,286.5C 328.131,277.876 328.798,269.21 329,260.5C 330.587,259.273 331.921,259.606 333,261.5C 342.875,280.111 342.208,298.445 331,316.5C 307.237,351.129 274.737,364.296 233.5,356C 189.06,340.323 168.226,308.823 171,261.5C 173.709,238.579 183.875,219.746 201.5,205C 209.164,199.499 217.164,194.499 225.5,190C 230.767,185.57 235.101,180.404 238.5,174.5 Z"/></g>
<g><path style="opacity:1" fill="#ca0d22" d="M 187.5,150.5 C 185.5,152.167 183.5,153.833 181.5,155.5C 154.52,173.169 136.187,197.502 126.5,228.5C 124.603,230.269 123.436,232.602 123,235.5C 110.769,290.713 125.269,337.88 166.5,377C 204.685,407.906 247.685,417.239 295.5,405C 343.841,389.326 375.341,357.159 390,308.5C 391.126,301.703 391.959,294.87 392.5,288C 392.483,282.05 391.483,276.55 389.5,271.5C 388.58,264.539 386.913,257.872 384.5,251.5C 383.267,246.707 381.267,242.374 378.5,238.5C 376.904,234.255 374.904,230.255 372.5,226.5C 375.361,226.513 376.361,227.679 375.5,230C 377.081,230.707 378.581,231.54 380,232.5C 401.597,274.732 398.93,315.065 372,353.5C 334.514,401.209 286.348,420.043 227.5,410C 167.315,394.149 130.649,355.816 117.5,295C 110.571,240.597 127.905,195.763 169.5,160.5C 170.689,159.571 172.022,159.238 173.5,159.5C 173.5,158.5 173.5,157.5 173.5,156.5C 176.232,154.965 178.898,153.131 181.5,151C 183.473,150.505 185.473,150.338 187.5,150.5 Z"/></g>
<g><path style="opacity:1" fill="#fbe4e6" d="M 266.5,127.5 C 264.495,133.151 262.328,138.818 260,144.5C 258.734,149.427 257.901,154.427 257.5,159.5C 258.499,168.994 260.332,178.328 263,187.5C 263.667,190.167 263.667,192.833 263,195.5C 255.591,199.192 248.091,202.692 240.5,206C 239.207,206.49 237.873,206.657 236.5,206.5C 237.306,205.272 238.306,204.272 239.5,203.5C 246.158,199.67 253.158,196.67 260.5,194.5C 259.374,185.369 257.54,176.369 255,167.5C 252.363,152.116 256.196,138.783 266.5,127.5 Z"/></g>
<g><path style="opacity:1" fill="#c90f23" d="M 230.5,209.5 C 218.94,219.233 209.773,230.9 203,244.5C 198.931,258.023 198.431,271.689 201.5,285.5C 206.059,304.908 217.725,318.408 236.5,326C 270.335,334.913 295.335,323.913 311.5,293C 310.663,291.989 310.33,290.822 310.5,289.5C 311.374,286.211 312.041,282.877 312.5,279.5C 313.268,278.737 313.768,277.737 314,276.5C 314.5,269.508 314.666,262.508 314.5,255.5C 313.534,250.852 313.034,246.186 313,241.5C 313.712,238.05 315.878,236.384 319.5,236.5C 323.199,237.183 326.532,238.683 329.5,241C 351.127,261.344 356.793,285.51 346.5,313.5C 346.5,314.167 346.5,314.833 346.5,315.5C 336.116,333.551 321.783,347.551 303.5,357.5C 299.942,359.112 296.275,360.445 292.5,361.5C 292.082,360.778 291.416,360.278 290.5,360C 323.677,347.41 343.343,323.076 349.5,287C 348.316,267.285 339.649,251.951 323.5,241C 318.617,239.87 315.95,241.87 315.5,247C 325.22,277.772 317.554,303.439 292.5,324C 261.121,342.167 232.621,337.667 207,310.5C 193.59,290.14 190.923,268.14 199,244.5C 205.311,231.62 213.478,220.787 223.5,212C 224.793,211.51 226.127,211.343 227.5,211.5C 227.351,210.448 227.517,209.448 228,208.5C 228.671,209.252 229.504,209.586 230.5,209.5 Z"/></g>
<g><path style="opacity:1" fill="#fbe5e7" d="M 288.5,154.5 C 288.336,157.187 288.503,159.854 289,162.5C 289.278,163.416 289.778,164.082 290.5,164.5C 292.017,171.086 293.017,177.752 293.5,184.5C 299.208,184.84 304.875,185.507 310.5,186.5C 336.175,192.194 356.842,205.527 372.5,226.5C 374.904,230.255 376.904,234.255 378.5,238.5C 376.867,237.055 375.034,235.721 373,234.5C 371.519,230.873 369.519,227.54 367,224.5C 358.345,214.833 348.845,206.333 338.5,199C 324.139,192.66 309.139,188.66 293.5,187C 291.036,183.951 289.536,180.451 289,176.5C 287.608,169.023 287.441,161.689 288.5,154.5 Z"/></g>
<g><path style="opacity:1" fill="#fae1e3" d="M 236.5,206.5 C 229.015,215.326 221.015,223.992 212.5,232.5C 208.511,239.977 205.011,247.644 202,255.5C 201.334,265.519 201.501,275.519 202.5,285.5C 202.167,285.5 201.833,285.5 201.5,285.5C 198.431,271.689 198.931,258.023 203,244.5C 209.773,230.9 218.94,219.233 230.5,209.5C 232.517,208.471 234.517,207.471 236.5,206.5 Z"/></g>
<g><path style="opacity:1" fill="#fae2e4" d="M 353.5,266.5 C 345.615,242.285 329.282,226.951 304.5,220.5C 307.077,232.489 310.41,244.156 314.5,255.5C 314.666,262.508 314.5,269.508 314,276.5C 313.768,277.737 313.268,278.737 312.5,279.5C 312.666,271.16 312.5,262.827 312,254.5C 310.466,250.37 308.633,246.37 306.5,242.5C 305.435,238.138 304.268,233.805 303,229.5C 302.211,225.909 302.378,222.409 303.5,219C 306.167,218.333 308.833,218.333 311.5,219C 334.638,226.96 348.638,242.793 353.5,266.5 Z"/></g>
<g><path style="opacity:1" fill="#c31828" d="M 353.5,266.5 C 353.5,266.833 353.5,267.167 353.5,267.5C 356.532,283.798 354.199,299.132 346.5,313.5C 356.793,285.51 351.127,261.344 329.5,241C 326.532,238.683 323.199,237.183 319.5,236.5C 315.878,236.384 313.712,238.05 313,241.5C 313.034,246.186 313.534,250.852 314.5,255.5C 310.41,244.156 307.077,232.489 304.5,220.5C 329.282,226.951 345.615,242.285 353.5,266.5 Z"/></g>
<g><path style="opacity:1" fill="#fadfe1" d="M 177.5,203.5 C 161.533,224.743 154.2,248.743 155.5,275.5C 154.343,267.01 154.176,258.343 155,249.5C 158.676,233.787 164.676,219.121 173,205.5C 174.33,204.418 175.83,203.751 177.5,203.5 Z"/></g>
<g><path style="opacity:1" fill="#c31828" d="M 269.5,223.5 C 272.486,236.293 275.986,248.96 280,261.5C 280.823,267.629 280.323,273.629 278.5,279.5C 277.061,281.36 275.395,283.027 273.5,284.5C 277.733,269.229 275.733,254.729 267.5,241C 262.157,237.98 257.157,238.646 252.5,243C 246.338,249.488 241.838,256.988 239,265.5C 238.391,270.861 238.558,276.195 239.5,281.5C 238.272,280.694 237.272,279.694 236.5,278.5C 232.721,267.413 234.221,257.079 241,247.5C 247.93,236.4 257.43,228.4 269.5,223.5 Z"/></g>
<g><path style="opacity:1" fill="#cf081f" d="M 273.5,284.5 C 265.732,290.581 257.065,292.081 247.5,289C 244.669,286.999 242.003,284.833 239.5,282.5C 239.5,282.167 239.5,281.833 239.5,281.5C 238.558,276.195 238.391,270.861 239,265.5C 241.838,256.988 246.338,249.488 252.5,243C 257.157,238.646 262.157,237.98 267.5,241C 275.733,254.729 277.733,269.229 273.5,284.5 Z"/></g>
<g><path style="opacity:1" fill="#c51225" d="M 126.5,228.5 C 117.352,262.425 120.352,295.092 135.5,326.5C 135.66,328.153 136.326,329.486 137.5,330.5C 138.11,331.391 138.443,332.391 138.5,333.5C 137.782,335.137 137.616,336.803 138,338.5C 177.62,398.827 232.453,419.327 302.5,400C 337.172,386.66 363.005,363.494 380,330.5C 380.497,328.19 380.663,325.857 380.5,323.5C 383.091,316.227 385.591,308.894 388,301.5C 389.295,291.545 389.795,281.545 389.5,271.5C 391.483,276.55 392.483,282.05 392.5,288C 391.959,294.87 391.126,301.703 390,308.5C 375.341,357.159 343.841,389.326 295.5,405C 247.685,417.239 204.685,407.906 166.5,377C 125.269,337.88 110.769,290.713 123,235.5C 123.436,232.602 124.603,230.269 126.5,228.5 Z"/></g>
<g><path style="opacity:1" fill="#f8d9dc" d="M 269.5,223.5 C 257.43,228.4 247.93,236.4 241,247.5C 234.221,257.079 232.721,267.413 236.5,278.5C 235.883,278.611 235.383,278.944 235,279.5C 232.656,273.369 231.989,267.036 233,260.5C 235.245,253.511 238.412,247.011 242.5,241C 244.783,239.382 246.283,237.215 247,234.5C 251.351,231.97 255.184,228.803 258.5,225C 262.068,222.56 265.735,222.06 269.5,223.5 Z"/></g>
<g><path style="opacity:1" fill="#da011b" d="M 257.5,247.5 C 260.652,246.959 263.152,247.959 265,250.5C 269.819,259.981 270.486,269.648 267,279.5C 260.26,286.099 253.593,286.099 247,279.5C 243.813,272.752 244.147,266.085 248,259.5C 250.68,255.001 253.847,251.001 257.5,247.5 Z"/></g>
<g><path style="opacity:1" fill="#fae0e3" d="M 181.5,155.5 C 181.011,158.324 179.344,159.657 176.5,159.5C 176.67,160.822 176.337,161.989 175.5,163C 170.1,167.647 164.6,172.147 159,176.5C 158.667,177.5 158.333,178.5 158,179.5C 154.482,181.516 152.149,184.516 151,188.5C 147.649,190.854 144.982,193.854 143,197.5C 120.97,238.719 118.803,281.053 136.5,324.5C 136.137,325.183 135.804,325.85 135.5,326.5C 120.352,295.092 117.352,262.425 126.5,228.5C 136.187,197.502 154.52,173.169 181.5,155.5 Z"/></g>
<g><path style="opacity:1" fill="#f9d9dc" d="M 269.5,223.5 C 270.586,223.62 271.253,224.287 271.5,225.5C 275,238.167 278.5,250.833 282,263.5C 282.667,266.833 282.667,270.167 282,273.5C 281.647,276.152 280.48,278.152 278.5,279.5C 280.323,273.629 280.823,267.629 280,261.5C 275.986,248.96 272.486,236.293 269.5,223.5 Z"/></g>
<g><path style="opacity:1" fill="#f9dadd" d="M 384.5,251.5 C 386.913,257.872 388.58,264.539 389.5,271.5C 389.795,281.545 389.295,291.545 388,301.5C 385.591,308.894 383.091,316.227 380.5,323.5C 376.918,331.003 372.585,338.003 367.5,344.5C 370.921,333.987 375.754,323.987 382,314.5C 386.481,303.971 388.314,292.971 387.5,281.5C 387.772,271.339 386.772,261.339 384.5,251.5 Z"/></g>
<g><path style="opacity:1" fill="#fadfe1" d="M 353.5,267.5 C 354.966,268.347 355.8,269.68 356,271.5C 356.667,280.5 356.667,289.5 356,298.5C 355.441,301.285 354.108,303.618 352,305.5C 351.73,308.224 351.23,310.891 350.5,313.5C 349.423,314.705 348.09,315.372 346.5,315.5C 346.5,314.833 346.5,314.167 346.5,313.5C 354.199,299.132 356.532,283.798 353.5,267.5 Z"/></g>
<g><path style="opacity:1" fill="#fae2e4" d="M 278.5,279.5 C 277.496,286.004 273.829,290.171 267.5,292C 257.758,293.944 248.924,292.111 241,286.5C 240.209,285.255 239.709,283.922 239.5,282.5C 242.003,284.833 244.669,286.999 247.5,289C 257.065,292.081 265.732,290.581 273.5,284.5C 275.395,283.027 277.061,281.36 278.5,279.5 Z"/></g>
<g><path style="opacity:1" fill="#c01d2b" d="M 201.5,285.5 C 201.833,285.5 202.167,285.5 202.5,285.5C 202.5,285.833 202.5,286.167 202.5,286.5C 216.689,318.448 240.689,330.114 274.5,321.5C 274.833,321.5 275.167,321.5 275.5,321.5C 291.629,315.704 303.296,305.037 310.5,289.5C 310.33,290.822 310.663,291.989 311.5,293C 295.335,323.913 270.335,334.913 236.5,326C 217.725,318.408 206.059,304.908 201.5,285.5 Z"/></g>
<g><path style="opacity:1" fill="#fadfe1" d="M 312.5,279.5 C 312.041,282.877 311.374,286.211 310.5,289.5C 303.296,305.037 291.629,315.704 275.5,321.5C 283.761,315.58 291.928,309.247 300,302.5C 305.253,295.32 309.42,287.653 312.5,279.5 Z"/></g>
<g><path style="opacity:1" fill="#f9dee0" d="M 202.5,286.5 C 203.675,286.281 204.675,286.614 205.5,287.5C 213.457,303.291 225.457,314.791 241.5,322C 252.519,322.684 263.519,322.518 274.5,321.5C 240.689,330.114 216.689,318.448 202.5,286.5 Z"/></g>
<g><path style="opacity:1" fill="#c01c2a" d="M 380.5,323.5 C 380.663,325.857 380.497,328.19 380,330.5C 363.005,363.494 337.172,386.66 302.5,400C 232.453,419.327 177.62,398.827 138,338.5C 137.616,336.803 137.782,335.137 138.5,333.5C 175.897,391.924 228.564,413.091 296.5,397C 301.807,395.295 306.807,393.129 311.5,390.5C 334.293,380.715 352.959,365.715 367.5,345.5C 367.5,345.167 367.5,344.833 367.5,344.5C 372.585,338.003 376.918,331.003 380.5,323.5 Z"/></g>
<g><path style="opacity:1" fill="#fbe4e6" d="M 155.5,277.5 C 157.076,286.802 159.743,295.802 163.5,304.5C 173.386,329.888 190.719,348.388 215.5,360C 241.026,370.655 266.693,371.155 292.5,361.5C 296.275,360.445 299.942,359.112 303.5,357.5C 302.286,359.149 300.953,360.815 299.5,362.5C 294.319,363.9 289.319,365.733 284.5,368C 266.163,371.284 247.83,371.284 229.5,368C 211.397,362.95 195.731,353.784 182.5,340.5C 165.216,323.007 156.216,302.007 155.5,277.5 Z"/></g>
<g><path style="opacity:1" fill="#fbe5e7" d="M 137.5,330.5 C 140.084,332.578 142.584,334.912 145,337.5C 161.227,363.389 183.727,381.556 212.5,392C 220.528,393.915 228.195,396.582 235.5,400C 250.2,400.851 264.867,400.518 279.5,399C 287.437,396.344 295.437,393.677 303.5,391C 306.146,390.503 308.813,390.336 311.5,390.5C 306.807,393.129 301.807,395.295 296.5,397C 228.564,413.091 175.897,391.924 138.5,333.5C 138.443,332.391 138.11,331.391 137.5,330.5 Z"/></g>
<g><path style="opacity:1" fill="#fae3e5" d="M 367.5,345.5 C 352.959,365.715 334.293,380.715 311.5,390.5C 312.183,388.824 313.517,388.157 315.5,388.5C 315.281,387.325 315.614,386.325 316.5,385.5C 321.221,382.473 326.221,379.973 331.5,378C 334.951,373.552 339.285,370.219 344.5,368C 346.827,363.829 350.161,360.995 354.5,359.5C 354.5,358.5 354.5,357.5 354.5,356.5C 355.5,356.5 356.5,356.5 357.5,356.5C 357.343,355.127 357.51,353.793 358,352.5C 360.669,351.253 362.502,349.253 363.5,346.5C 364.736,345.754 366.07,345.421 367.5,345.5 Z"/></g>
</svg>
