<?xml version="1.0" encoding="UTF-8"?>
<!DOCTYPE svg PUBLIC "-//W3C//DTD SVG 1.1//EN" "http://www.w3.org/Graphics/SVG/1.1/DTD/svg11.dtd">
<svg xmlns="http://www.w3.org/2000/svg" version="1.1" width="512px" height="512px" style="shape-rendering:geometricPrecision; text-rendering:geometricPrecision; image-rendering:optimizeQuality; fill-rule:evenodd; clip-rule:evenodd" xmlns:xlink="http://www.w3.org/1999/xlink">
<g><path style="opacity:1" fill="#1f2937" d="M -0.5,-0.5 C 170.167,-0.5 340.833,-0.5 511.5,-0.5C 511.5,170.167 511.5,340.833 511.5,511.5C 340.833,511.5 170.167,511.5 -0.5,511.5C -0.5,340.833 -0.5,170.167 -0.5,-0.5 Z"/></g>
<g><path style="opacity:1" fill="#eef5fd" d="M 274.5,389.5 C 262.011,388.505 249.344,388.171 236.5,388.5C 236.833,302.332 236.499,216.332 235.5,130.5C 205.167,130.5 174.833,130.5 144.5,130.5C 144.5,119.5 144.5,108.5 144.5,97.5C 218.5,97.5 292.5,97.5 366.5,97.5C 366.5,108.5 366.5,119.5 366.5,130.5C 336.167,130.5 305.833,130.5 275.5,130.5C 275.833,217.002 275.499,303.335 274.5,389.5 Z"/></g>
<g><path style="opacity:1" fill="#9fc0e4" d="M 235.5,130.5 C 236.499,216.332 236.833,302.332 236.5,388.5C 249.344,388.171 262.011,388.505 274.5,389.5C 261.5,389.5 248.5,389.5 235.5,389.5C 235.5,303.167 235.5,216.833 235.5,130.5 Z"/></g>
</svg>
